<svg width="120" height="120" viewBox="0 0 120 120" xmlns="http://www.w3.org/2000/svg">
  <defs>
    <radialGradient id="oracleGenAIGradient" cx="50%" cy="50%" r="50%">
      <stop offset="0%" style="stop-color:#c74634;stop-opacity:1" />
      <stop offset="30%" style="stop-color:#ff6b3d;stop-opacity:1" />
      <stop offset="70%" style="stop-color:#ff8c42;stop-opacity:1" />
      <stop offset="100%" style="stop-color:#c74634;stop-opacity:1" />
    </radialGradient>
    <linearGradient id="oracleGenAIText" x1="0%" y1="0%" x2="100%" y2="100%">
      <stop offset="0%" style="stop-color:#ffffff;stop-opacity:1" />
      <stop offset="100%" style="stop-color:#fff5f0;stop-opacity:1" />
    </linearGradient>
  </defs>
  
  <!-- Background circle -->
  <circle cx="60" cy="60" r="58" fill="url(#oracleGenAIGradient)" stroke="#8b2914" stroke-width="2"/>
  
  <!-- Generative AI sparkles and waves -->
  <path d="M35 40 Q45 30 55 40 Q65 50 75 40 Q85 30 95 40" fill="none" stroke="url(#oracleGenAIText)" stroke-width="2" opacity="0.8"/>
  <path d="M30 50 Q40 40 50 50 Q60 60 70 50 Q80 40 90 50" fill="none" stroke="url(#oracleGenAIText)" stroke-width="2" opacity="0.6"/>
  
  <!-- AI stars/sparkles -->
  <circle cx="45" cy="35" r="2" fill="url(#oracleGenAIText)" opacity="0.9"/>
  <circle cx="75" cy="35" r="2" fill="url(#oracleGenAIText)" opacity="0.9"/>
  <circle cx="40" cy="55" r="1.5" fill="url(#oracleGenAIText)" opacity="0.7"/>
  <circle cx="80" cy="55" r="1.5" fill="url(#oracleGenAIText)" opacity="0.7"/>
  
  <!-- Central AI node -->
  <circle cx="60" cy="45" r="8" fill="url(#oracleGenAIText)" opacity="0.3"/>
  <circle cx="60" cy="45" r="4" fill="url(#oracleGenAIText)" opacity="0.8"/>
  
  <!-- Oracle logo text -->
  <text x="60" y="75" text-anchor="middle" fill="url(#oracleGenAIText)" font-family="Arial, sans-serif" font-size="14" font-weight="700">ORACLE</text>
  <text x="60" y="87" text-anchor="middle" fill="url(#oracleGenAIText)" font-family="Arial, sans-serif" font-size="8" font-weight="500">CLOUD INFRASTRUCTURE</text>
  <text x="60" y="97" text-anchor="middle" fill="url(#oracleGenAIText)" font-family="Arial, sans-serif" font-size="8" font-weight="600">GENERATIVE AI</text>
  <text x="60" y="107" text-anchor="middle" fill="url(#oracleGenAIText)" font-family="Arial, sans-serif" font-size="7" font-weight="400">PROFESSIONAL</text>
</svg>
