<svg width="120" height="120" viewBox="0 0 120 120" xmlns="http://www.w3.org/2000/svg">
  <defs>
    <radialGradient id="oracleAIGradient" cx="50%" cy="50%" r="50%">
      <stop offset="0%" style="stop-color:#c74634;stop-opacity:1" />
      <stop offset="100%" style="stop-color:#8b2914;stop-opacity:1" />
    </radialGradient>
    <linearGradient id="oracleAIText" x1="0%" y1="0%" x2="100%" y2="100%">
      <stop offset="0%" style="stop-color:#ffffff;stop-opacity:1" />
      <stop offset="100%" style="stop-color:#ffe6e6;stop-opacity:1" />
    </linearGradient>
  </defs>
  
  <!-- Background circle -->
  <circle cx="60" cy="60" r="58" fill="url(#oracleAIGradient)" stroke="#6b1f12" stroke-width="2"/>
  
  <!-- AI brain icon -->
  <circle cx="60" cy="45" r="15" fill="none" stroke="url(#oracleAIText)" stroke-width="2" opacity="0.9"/>
  <circle cx="55" cy="40" r="2" fill="url(#oracleAIText)"/>
  <circle cx="65" cy="40" r="2" fill="url(#oracleAIText)"/>
  <circle cx="50" cy="45" r="1.5" fill="url(#oracleAIText)"/>
  <circle cx="70" cy="45" r="1.5" fill="url(#oracleAIText)"/>
  <circle cx="55" cy="50" r="1.5" fill="url(#oracleAIText)"/>
  <circle cx="65" cy="50" r="1.5" fill="url(#oracleAIText)"/>
  <circle cx="60" cy="45" r="3" fill="url(#oracleAIText)" opacity="0.7"/>
  
  <!-- Neural connections -->
  <line x1="55" y1="40" x2="50" y2="45" stroke="url(#oracleAIText)" stroke-width="1" opacity="0.6"/>
  <line x1="65" y1="40" x2="70" y2="45" stroke="url(#oracleAIText)" stroke-width="1" opacity="0.6"/>
  <line x1="55" y1="40" x2="60" y2="45" stroke="url(#oracleAIText)" stroke-width="1" opacity="0.6"/>
  <line x1="65" y1="40" x2="60" y2="45" stroke="url(#oracleAIText)" stroke-width="1" opacity="0.6"/>
  
  <!-- Oracle logo text -->
  <text x="60" y="75" text-anchor="middle" fill="url(#oracleAIText)" font-family="Arial, sans-serif" font-size="14" font-weight="700">ORACLE</text>
  <text x="60" y="88" text-anchor="middle" fill="url(#oracleAIText)" font-family="Arial, sans-serif" font-size="8" font-weight="500">CLOUD INFRASTRUCTURE</text>
  <text x="60" y="98" text-anchor="middle" fill="url(#oracleAIText)" font-family="Arial, sans-serif" font-size="8" font-weight="500">AI FOUNDATIONS</text>
  <text x="60" y="108" text-anchor="middle" fill="url(#oracleAIText)" font-family="Arial, sans-serif" font-size="7" font-weight="400">2024</text>
</svg>
